<?xml version="1.0" standalone="no"?>
<!DOCTYPE svg PUBLIC "-//W3C//DTD SVG 20010904//EN"
 "http://www.w3.org/TR/2001/REC-SVG-20010904/DTD/svg10.dtd">
<svg version="1.0" xmlns="http://www.w3.org/2000/svg"
 width="413.000000pt" height="413.000000pt" viewBox="0 0 413.000000 413.000000"
 preserveAspectRatio="xMidYMid meet">
<metadata>
Created by potrace 1.11, written by Peter Selinger 2001-2013
</metadata>
<g transform="translate(0.000000,413.000000) scale(0.100000,-0.100000)"
fill="#000000" stroke="none">
<path d="M1377 3880 c-3 -11 -9 -20 -14 -18 -14 4 -53 -13 -53 -23 0 -5 -7 -9
-15 -9 -8 0 -15 -5 -15 -11 0 -5 -5 -7 -10 -4 -10 6 -80 -60 -80 -76 0 -5 -7
-9 -15 -9 -8 0 -15 -7 -15 -16 0 -8 -4 -13 -9 -10 -5 3 -11 -1 -15 -9 -3 -8
-12 -15 -20 -15 -7 0 -16 -9 -19 -21 -3 -12 -10 -18 -15 -15 -6 3 -12 -1 -16
-9 -3 -8 -12 -15 -21 -15 -8 0 -15 -7 -15 -16 0 -8 -4 -12 -10 -9 -6 3 -10 -4
-10 -17 0 -23 69 -108 88 -108 6 0 12 -6 14 -12 3 -9 13 -7 33 7 15 11 42 28
59 38 17 10 36 25 43 33 7 9 14 11 17 5 4 -5 15 -8 26 -6 16 3 20 -2 20 -20 0
-13 -8 -29 -18 -34 -14 -7 -18 -18 -14 -41 2 -16 0 -36 -6 -43 -9 -11 -14
-114 -16 -299 0 -32 -5 -58 -11 -58 -10 0 -15 -37 -18 -146 -2 -49 2 -66 17
-83 11 -12 26 -19 33 -16 8 2 11 0 8 -5 -3 -6 2 -10 12 -10 10 0 24 9 31 20 7
12 16 19 21 16 4 -3 23 8 42 24 19 16 40 29 47 30 6 0 12 4 12 10 0 5 11 12
25 16 14 3 25 10 25 15 0 4 16 7 35 6 38 -2 45 -18 20 -51 -8 -10 -12 -23 -9
-28 3 -5 1 -15 -5 -22 -6 -7 -11 -41 -12 -75 -1 -36 -6 -65 -13 -67 -6 -2 -12
-22 -13 -44 -2 -22 -8 -50 -14 -62 -6 -11 -13 -66 -15 -122 -3 -56 -9 -123
-14 -151 -5 -27 -12 -68 -15 -90 -3 -22 -7 -53 -9 -70 -3 -16 -7 -77 -10 -134
-3 -58 -9 -107 -14 -110 -11 -8 -7 -80 6 -112 6 -15 7 -42 2 -67 -4 -23 -4
-45 1 -47 4 -3 8 -22 8 -43 -1 -57 7 -93 21 -102 7 -4 9 -13 5 -19 -4 -7 0
-23 9 -36 9 -13 16 -35 16 -49 0 -33 10 -57 21 -50 5 3 9 -1 9 -9 0 -8 9 -26
20 -39 10 -14 16 -28 13 -32 -4 -3 2 -13 13 -21 10 -8 15 -15 11 -15 -9 0 8
-23 37 -48 10 -9 36 -34 57 -54 21 -21 43 -38 49 -38 5 0 10 -5 10 -11 0 -15
39 -49 55 -49 21 0 24 -48 5 -70 -12 -14 -27 -19 -49 -16 -17 2 -31 0 -31 -5
0 -5 -7 -6 -15 -3 -8 3 -17 0 -20 -8 -3 -8 -11 -15 -18 -16 -7 0 -21 -3 -32
-6 -11 -3 -42 -11 -70 -17 -27 -6 -54 -15 -60 -20 -5 -5 -17 -9 -27 -9 -10 0
-18 -4 -18 -8 0 -5 -6 -9 -12 -10 -31 -2 -67 -13 -116 -37 -65 -32 -122 -34
-122 -5 0 11 4 20 9 20 8 0 19 29 28 75 2 10 9 22 15 26 21 13 10 68 -23 114
-41 57 -76 58 -130 4 -11 -11 -33 -22 -49 -25 -16 -4 -31 -12 -34 -19 -3 -8
-19 -13 -36 -13 -18 1 -35 -4 -38 -9 -4 -6 -22 -13 -40 -16 -18 -3 -39 -10
-46 -16 -7 -6 -16 -8 -19 -4 -4 3 -7 1 -7 -6 0 -7 -10 -11 -22 -10 -13 2 -33
-3 -45 -9 -13 -7 -23 -10 -23 -7 0 3 -10 -1 -22 -9 -13 -8 -39 -16 -58 -17
-19 -2 -43 -9 -52 -17 -9 -8 -21 -11 -27 -8 -14 9 -63 -12 -56 -24 3 -5 0 -8
-7 -5 -7 3 -35 1 -62 -4 -27 -5 -55 -7 -63 -4 -15 6 -17 39 -3 48 6 4 8 10 5
15 -2 4 4 19 15 33 11 14 20 37 20 51 0 14 4 26 9 26 8 0 19 27 17 41 -1 3 5
13 13 22 21 26 6 60 -39 87 -22 14 -40 28 -40 32 0 16 -67 8 -83 -10 -10 -10
-15 -21 -12 -24 3 -3 -1 -11 -10 -18 -8 -7 -15 -23 -15 -36 0 -13 -4 -24 -10
-24 -5 0 -10 -7 -10 -15 0 -8 -9 -24 -20 -35 -11 -11 -20 -25 -20 -32 0 -27
-25 -78 -39 -78 -8 0 -12 -3 -8 -6 3 -4 -7 -31 -24 -62 -16 -30 -29 -61 -29
-68 0 -8 -9 -23 -21 -35 -48 -48 -47 -129 2 -151 16 -7 29 -16 29 -20 0 -5 11
-8 24 -8 14 0 32 -10 41 -22 8 -13 19 -22 23 -22 4 1 18 -3 32 -9 14 -5 32
-11 40 -13 8 -2 16 -8 18 -13 2 -6 14 -11 27 -11 13 0 32 -11 42 -23 18 -24
93 -74 93 -63 0 3 16 -3 35 -14 20 -11 46 -20 59 -20 14 0 27 -6 29 -12 4 -8
8 -4 12 10 4 12 13 22 20 22 7 0 20 20 29 45 10 25 22 45 28 45 15 0 0 53 -18
63 -8 5 -11 13 -8 19 5 8 1 9 -10 5 -10 -4 -24 1 -36 13 -11 11 -24 20 -28 20
-16 0 -72 69 -67 82 4 9 23 15 49 17 42 2 138 30 153 44 3 4 20 7 38 7 17 0
36 5 42 11 6 6 28 12 48 14 20 1 40 6 44 12 8 12 41 24 42 15 0 -4 3 -20 5
-36 3 -17 -1 -32 -9 -40 -20 -15 -43 -116 -27 -116 3 0 15 -15 28 -34 l23 -34
71 4 c40 3 75 8 78 13 3 5 18 13 33 16 15 4 27 10 27 14 0 4 16 8 35 9 20 1
43 8 51 16 8 8 21 13 30 9 9 -3 14 0 12 8 -3 14 2 15 65 17 21 1 36 6 33 11
-8 12 16 29 36 26 9 -2 22 3 29 11 6 8 20 14 31 14 10 0 32 7 47 15 16 8 31
12 34 9 3 -3 31 3 61 15 31 11 63 18 72 14 10 -4 20 0 26 10 5 10 18 17 28 17
10 0 22 5 25 11 4 6 12 8 19 6 7 -3 28 2 47 10 18 9 44 16 57 17 13 1 27 7 31
14 4 7 26 13 49 14 25 0 43 6 46 14 3 8 15 14 26 14 12 0 31 5 43 12 12 7 71
13 132 15 61 1 135 3 165 4 30 0 66 6 80 12 14 6 30 11 35 12 9 0 61 22 112
47 11 6 25 8 30 5 5 -3 15 3 23 13 8 10 17 17 22 14 11 -7 59 31 51 40 -3 3
-1 6 6 6 7 0 24 11 39 25 120 111 162 154 162 168 0 8 3 17 8 19 11 4 82 143
82 159 0 8 7 27 15 42 8 16 16 42 17 59 1 16 8 34 14 39 8 6 9 20 5 36 -9 34
22 129 40 125 8 -2 35 -26 62 -53 26 -27 52 -49 58 -49 6 0 8 -4 5 -8 -3 -5 4
-16 15 -25 10 -9 19 -13 19 -9 1 4 7 -4 15 -18 8 -14 14 -21 15 -16 0 5 20
-12 45 -39 24 -27 42 -52 39 -56 -2 -4 12 -17 32 -30 23 -14 32 -24 24 -29 -6
-4 -11 -10 -10 -14 4 -18 -9 -30 -36 -32 -16 -1 -29 -3 -29 -4 0 -8 -92 -7
-101 1 -7 6 -16 4 -24 -6 -7 -8 -16 -13 -20 -10 -16 10 -29 -22 -31 -78 -2
-58 -2 -58 49 -106 29 -27 52 -56 52 -66 0 -9 5 -13 10 -10 6 4 44 -27 84 -69
41 -41 77 -72 80 -68 4 3 9 -4 13 -16 3 -12 9 -19 14 -16 5 3 9 0 9 -6 0 -6
16 -25 35 -43 19 -17 35 -38 35 -44 0 -7 7 -13 15 -13 8 0 14 -6 12 -12 -1 -7
6 -12 16 -10 9 2 17 -3 17 -10 1 -7 18 -26 38 -42 40 -32 54 -85 22 -87 -8 0
-48 -2 -88 -2 -62 -2 -75 -5 -85 -22 -17 -29 -18 -64 -3 -94 7 -14 11 -32 9
-38 -3 -7 2 -13 11 -13 9 0 15 -6 13 -13 -1 -9 22 -13 88 -14 130 -4 385 -5
421 -2 l30 2 -1 76 c-2 94 -3 103 -13 97 -4 -2 -8 7 -9 22 -1 48 -13 245 -18
310 -3 34 -14 77 -24 95 -16 28 -23 32 -52 29 -51 -5 -67 -30 -65 -104 1 -35
6 -69 10 -76 4 -7 4 -17 1 -22 -4 -6 -7 -31 -7 -55 0 -25 -3 -45 -8 -45 -5 0
-16 -3 -26 -7 -13 -5 -16 -3 -11 9 7 19 -27 53 -42 43 -6 -3 -11 -1 -11 5 0
16 -46 71 -53 64 -3 -3 -10 4 -17 15 -6 12 -18 21 -27 21 -9 0 -14 3 -11 6 6
5 -30 43 -125 128 -32 28 -53 55 -50 63 3 7 -2 13 -11 13 -9 0 -16 4 -16 9 0
15 22 26 59 27 136 6 174 15 206 49 26 26 33 42 33 73 1 32 -3 40 -14 35 -10
-4 -12 0 -8 11 4 11 1 16 -10 16 -9 0 -16 5 -16 10 0 6 -7 10 -16 10 -9 0 -46
31 -83 70 -37 39 -73 70 -80 70 -7 0 -9 5 -6 10 3 6 1 10 -4 10 -6 0 -11 6
-11 14 0 7 -12 20 -27 27 -16 8 -28 21 -28 29 0 8 -10 19 -22 26 -13 6 -20 14
-16 17 3 4 2 7 -4 7 -16 0 -74 56 -66 64 3 3 1 6 -6 6 -7 0 -9 4 -6 10 3 5 0
10 -8 10 -7 0 -20 11 -27 25 -7 13 -17 22 -22 19 -4 -3 -8 2 -8 11 0 8 -8 19
-17 22 -10 4 -22 12 -26 20 -4 7 -14 13 -21 13 -8 0 -16 9 -19 20 -3 11 -12
20 -21 20 -10 0 -13 5 -9 17 4 11 3 14 -5 9 -8 -5 -12 0 -12 14 0 12 -4 19 -9
16 -5 -4 -28 12 -50 34 -23 23 -41 38 -41 35 0 -10 -223 218 -236 240 -6 11
-19 22 -29 24 -20 3 -72 60 -67 73 1 4 -1 7 -5 7 -20 -3 -33 2 -33 14 -1 6
-30 26 -65 42 -36 17 -65 34 -65 38 0 5 -4 6 -8 3 -7 -4 -30 4 -98 36 -20 9
-36 12 -164 24 -81 8 -70 8 -243 -10 -37 -5 -97 -26 -97 -36 0 -3 -13 -6 -29
-7 -17 -1 -41 -12 -56 -24 -14 -13 -32 -24 -41 -25 -9 -1 -23 -6 -32 -10 -9
-4 -20 -8 -24 -8 -3 -1 -20 -14 -38 -29 -17 -16 -40 -30 -51 -32 -10 -2 -23
-6 -28 -9 -5 -3 -14 1 -21 9 -13 16 1 173 18 184 5 3 10 26 11 51 5 116 6 130
13 130 3 0 10 15 13 33 4 17 10 37 13 42 4 6 8 33 9 60 2 28 8 62 14 77 6 14
10 39 8 55 -2 32 10 83 20 83 12 0 6 129 -7 142 -7 7 -12 20 -12 30 0 13 -8
18 -28 18 -16 0 -32 -3 -36 -7 -3 -4 -14 -8 -23 -9 -25 -4 -87 -37 -96 -51 -4
-7 -12 -13 -18 -13 -5 0 -27 -11 -49 -25 -50 -31 -68 -32 -76 -1 -9 39 8 235
23 259 4 7 9 21 10 32 5 63 12 81 33 92 21 11 26 9 40 -15 10 -15 36 -46 58
-68 38 -38 52 -43 94 -35 3 0 23 17 44 37 33 33 35 38 21 49 -9 6 -18 25 -21
41 -3 16 -10 30 -16 32 -5 2 -10 9 -10 15 0 7 -27 40 -59 75 -33 34 -57 62
-53 62 4 0 -1 5 -11 11 -9 6 -15 14 -12 19 3 4 -2 10 -10 14 -8 3 -15 13 -15
21 0 10 -5 13 -12 9 -8 -5 -9 -2 -5 9 3 10 3 17 -2 17 -4 0 -14 11 -21 25 -8
14 -18 24 -24 22 -6 -2 -19 7 -29 20 -23 29 -63 31 -70 3z m943 -1521 c19 -1
64 -15 100 -32 36 -16 75 -29 87 -29 12 0 24 -6 27 -13 3 -8 14 -11 28 -8 13
3 20 2 16 -2 -5 -5 17 -23 47 -42 60 -35 105 -76 105 -93 0 -5 7 -10 15 -10 8
0 15 -6 15 -14 0 -8 7 -16 15 -20 8 -3 15 -14 15 -25 0 -10 7 -21 15 -25 8 -3
15 -18 15 -32 0 -15 3 -24 7 -21 19 19 64 -158 57 -222 -2 -17 1 -31 6 -31 6
0 10 -5 10 -11 0 -5 -4 -7 -10 -4 -12 7 -11 12 -13 -94 -2 -57 -6 -86 -15 -89
-6 -2 -12 -10 -12 -17 0 -18 -32 -89 -42 -93 -5 -2 -8 -9 -8 -16 0 -8 -9 -25
-21 -40 -11 -14 -17 -26 -13 -26 4 0 -5 -11 -20 -25 -14 -13 -26 -29 -26 -35
0 -13 -57 -70 -70 -70 -6 0 -10 -7 -10 -15 0 -9 -6 -12 -15 -9 -9 4 -15 0 -15
-10 0 -9 -6 -16 -14 -16 -7 0 -19 -7 -26 -15 -7 -9 -19 -14 -27 -11 -8 3 -12
2 -9 -2 2 -4 -26 -18 -62 -31 -37 -13 -72 -28 -78 -32 -32 -25 -210 -31 -239
-8 -6 4 -47 15 -90 24 -44 9 -90 23 -102 31 -12 8 -30 14 -40 14 -10 0 -24 9
-31 21 -7 11 -19 18 -27 15 -8 -3 -15 -2 -17 2 -2 4 -16 17 -32 30 -16 12 -26
22 -22 22 4 0 -7 15 -24 32 -51 54 -57 62 -65 88 -4 14 -18 41 -31 60 -13 19
-24 40 -24 47 0 7 -4 13 -10 13 -5 0 -10 22 -10 49 0 28 -4 52 -8 55 -21 13
-20 241 1 262 4 4 7 24 7 44 0 40 25 100 47 113 7 4 13 16 13 27 0 10 7 25 15
34 8 8 15 21 15 29 0 23 146 167 169 167 5 0 11 7 15 15 3 8 12 15 21 15 8 0
15 5 15 10 0 6 11 10 25 10 14 0 25 4 25 9 0 9 53 22 98 25 13 1 26 6 30 12 4
6 34 12 67 13 33 1 62 4 64 7 3 2 12 2 20 -1 9 -2 32 -5 51 -6z"/>
</g>
</svg>
